<?xml version="1.0" encoding="UTF-8" standalone="no"?>
<svg id="svg2899" xmlns:rdf="http://www.w3.org/1999/02/22-rdf-syntax-ns#" xmlns="http://www.w3.org/2000/svg" viewBox="0 0 69.749 77.021" version="1.1" xmlns:cc="http://creativecommons.org/ns#" xmlns:dc="http://purl.org/dc/elements/1.1/">
 <metadata id="metadata2905">
  <rdf:RDF>
   <cc:Work rdf:about="">
    <dc:format>image/svg+xml</dc:format>
    <dc:type rdf:resource="http://purl.org/dc/dcmitype/StillImage"/>
    <dc:title/>
   </cc:Work>
  </rdf:RDF>
 </metadata>
 <defs id="defs2903"></defs>
 <path id="path2911" fill="#FFF" d="m42.035,30.661c20.54-39.276,49.453,8.7064,2.0127,5.2331,23.302-2.5248,16.914-24.387-2.0127-5.2331z"/>
 <path id="path2911-9" fill="#FFF" d="m27.714,46.53c-20.54,39.276-49.453-8.7064-2.0127-5.2331-23.302,2.5248-16.914,24.387,2.0127,5.2331z"/>
 <path id="path2911-1" fill="#FFF" d="m45.425,41.025c44.297-1.51,16.824,47.311-3.559,4.3324,13.692,19.023,29.557,2.6812,3.559-4.3324z"/>
 <path id="path2911-9-0" fill="#FFF" d="m24.556,36.398c-44.297,1.51-16.824-47.311,3.559-4.3324-13.692-19.023-29.557-2.6812-3.559,4.3324z"/>
 <path id="path2911-1-7" fill="#FFF" d="m37.937,48.724c23.215,37.757-32.805,38.016-5.5255-0.95136-9.7652,21.307,12.284,27.017,5.5255,0.95136z"/>
 <path id="path2911-9-0-5" fill="#FFF" d="M31.641,28.296c-23.215-37.756,32.805-38.016,5.526,0.952,9.765-21.307-12.284-27.017-5.526-0.952z"/>
 <path id="path3800" d="m41.059,155.93a2.063,2.063,0,1,1,-4.1261,0,2.063,2.063,0,1,1,4.1261,0z" transform="translate(-4.0561754,-117.17294)" fill="#FFF"/>
 <path id="path3802" d="m39.852,150.5a1.4592,1.4592,0,1,1,-2.9184,0,1.4592,1.4592,0,1,1,2.9184,0z" transform="translate(-3.5529974,-116.97167)" fill="#FFF"/>
 <path id="path3802-8" d="m39.852,150.5a1.4592,1.4592,0,1,1,-2.9184,0,1.4592,1.4592,0,1,1,2.9184,0z" transform="translate(-3.4020441,-106.55589)" fill="#FFF"/>
 <path id="path3802-9" d="m39.852,150.5a1.4592,1.4592,0,1,1,-2.9184,0,1.4592,1.4592,0,1,1,2.9184,0z" transform="translate(-7.8300101,-114.5061)" fill="#FFF"/>
 <path id="path3802-88" d="m39.852,150.5a1.4592,1.4592,0,1,1,-2.9184,0,1.4592,1.4592,0,1,1,2.9184,0z" transform="translate(0.82465088,-109.37368)" fill="#FFF"/>
 <path id="path3802-83" d="m39.852,150.5a1.4592,1.4592,0,1,1,-2.9184,0,1.4592,1.4592,0,1,1,2.9184,0z" transform="translate(0.82465088,-114.40546)" fill="#FFF"/>
 <path id="path3802-3" d="m39.852,150.5a1.4592,1.4592,0,1,1,-2.9184,0,1.4592,1.4592,0,1,1,2.9184,0z" transform="translate(-7.7293746,-109.07178)" fill="#FFF"/>
 <path id="path3864" d="m38.946,146.37a0.8554,0.8554,0,1,1,-1.7108,0,0.8554,0.8554,0,1,1,1.7108,0z" transform="translate(-3.2510906,-116.46849)" fill="#FFF"/>
 <path id="path3864-0" d="m38.946,146.37a0.8554,0.8554,0,1,1,-1.7108,0,0.8554,0.8554,0,1,1,1.7108,0z" transform="translate(1.1265575,-115.41181)" fill="#FFF"/>
 <path id="path3864-7" d="m38.946,146.37a0.8554,0.8554,0,1,1,-1.7108,0,0.8554,0.8554,0,1,1,1.7108,0z" transform="translate(4.2462608,-112.19147)" fill="#FFF"/>
 <path id="path3864-8" d="m38.946,146.37a0.8554,0.8554,0,1,1,-1.7108,0,0.8554,0.8554,0,1,1,1.7108,0z" transform="translate(5.7557948,-107.7635)" fill="#FFF"/>
 <path id="path3864-06" d="m38.946,146.37a0.8554,0.8554,0,1,1,-1.7108,0,0.8554,0.8554,0,1,1,1.7108,0z" transform="translate(4.6488033,-103.33554)" fill="#FFF"/>
 <path id="path3864-79" d="m38.946,146.37a0.8554,0.8554,0,1,1,-1.7108,0,0.8554,0.8554,0,1,1,1.7108,0z" transform="translate(1.3278286,-99.813292)" fill="#FFF"/>
 <path id="path3864-3" d="m38.946,146.37a0.8554,0.8554,0,1,1,-1.7108,0,0.8554,0.8554,0,1,1,1.7108,0z" transform="translate(-3.1001375,-98.605665)" fill="#FFF"/>
 <path id="path3864-37" d="m38.946,146.37a0.8554,0.8554,0,1,1,-1.7108,0,0.8554,0.8554,0,1,1,1.7108,0z" transform="translate(-7.7293748,-100.01456)" fill="#FFF"/>
 <path id="path3864-6" d="m38.946,146.37a0.8554,0.8554,0,1,1,-1.7108,0,0.8554,0.8554,0,1,1,1.7108,0z" transform="translate(-11.050349,-103.03363)" fill="#FFF"/>
 <path id="path3864-2" d="m38.946,146.37a0.8554,0.8554,0,1,1,-1.7108,0,0.8554,0.8554,0,1,1,1.7108,0z" transform="translate(-12.056705,-107.66287)" fill="#FFF"/>
 <path id="path3864-87" d="m38.946,146.37a0.8554,0.8554,0,1,1,-1.7108,0,0.8554,0.8554,0,1,1,1.7108,0z" transform="translate(-11.050349,-112.09084)" fill="#FFF"/>
 <path id="path3864-04" d="m38.946,146.37a0.8554,0.8554,0,1,1,-1.7108,0,0.8554,0.8554,0,1,1,1.7108,0z" transform="translate(-7.9306459,-115.51245)" fill="#FFF"/>
</svg>