<?xml version="1.0" encoding="UTF-8" standalone="no"?>
<!-- Created with Inkscape (http://www.inkscape.org/) -->

<svg
   xmlns:dc="http://purl.org/dc/elements/1.1/"
   xmlns:cc="http://creativecommons.org/ns#"
   xmlns:rdf="http://www.w3.org/1999/02/22-rdf-syntax-ns#"
   xmlns:svg="http://www.w3.org/2000/svg"
   xmlns="http://www.w3.org/2000/svg"
   xmlns:sodipodi="http://sodipodi.sourceforge.net/DTD/sodipodi-0.dtd"
   xmlns:inkscape="http://www.inkscape.org/namespaces/inkscape"
   id="svg2899"
   version="1.1"
   inkscape:version="0.47 r22583"
   width="69.748848"
   height="77.020645"
   sodipodi:docname="flower_opt.svg">
  <metadata
     id="metadata2905">
    <rdf:RDF>
      <cc:Work
         rdf:about="">
        <dc:format>image/svg+xml</dc:format>
        <dc:type
           rdf:resource="http://purl.org/dc/dcmitype/StillImage" />
        <dc:title></dc:title>
      </cc:Work>
    </rdf:RDF>
  </metadata>
  <defs
     id="defs2903">
    <inkscape:perspective
       sodipodi:type="inkscape:persp3d"
       inkscape:vp_x="0 : 0.5 : 1"
       inkscape:vp_y="0 : 1000 : 0"
       inkscape:vp_z="1 : 0.5 : 1"
       inkscape:persp3d-origin="0.5 : 0.33333333 : 1"
       id="perspective2907" />
    <inkscape:perspective
       id="perspective3693"
       inkscape:persp3d-origin="0.5 : 0.33333333 : 1"
       inkscape:vp_z="1 : 0.5 : 1"
       inkscape:vp_y="0 : 1000 : 0"
       inkscape:vp_x="0 : 0.5 : 1"
       sodipodi:type="inkscape:persp3d" />
    <inkscape:perspective
       id="perspective3715"
       inkscape:persp3d-origin="0.5 : 0.33333333 : 1"
       inkscape:vp_z="1 : 0.5 : 1"
       inkscape:vp_y="0 : 1000 : 0"
       inkscape:vp_x="0 : 0.5 : 1"
       sodipodi:type="inkscape:persp3d" />
    <inkscape:perspective
       id="perspective3737"
       inkscape:persp3d-origin="0.5 : 0.33333333 : 1"
       inkscape:vp_z="1 : 0.5 : 1"
       inkscape:vp_y="0 : 1000 : 0"
       inkscape:vp_x="0 : 0.5 : 1"
       sodipodi:type="inkscape:persp3d" />
    <inkscape:perspective
       id="perspective3762"
       inkscape:persp3d-origin="0.5 : 0.33333333 : 1"
       inkscape:vp_z="1 : 0.5 : 1"
       inkscape:vp_y="0 : 1000 : 0"
       inkscape:vp_x="0 : 0.5 : 1"
       sodipodi:type="inkscape:persp3d" />
    <inkscape:perspective
       id="perspective3812"
       inkscape:persp3d-origin="0.5 : 0.33333333 : 1"
       inkscape:vp_z="1 : 0.5 : 1"
       inkscape:vp_y="0 : 1000 : 0"
       inkscape:vp_x="0 : 0.5 : 1"
       sodipodi:type="inkscape:persp3d" />
    <inkscape:perspective
       id="perspective3812-8"
       inkscape:persp3d-origin="0.5 : 0.33333333 : 1"
       inkscape:vp_z="1 : 0.5 : 1"
       inkscape:vp_y="0 : 1000 : 0"
       inkscape:vp_x="0 : 0.5 : 1"
       sodipodi:type="inkscape:persp3d" />
    <inkscape:perspective
       id="perspective3812-2"
       inkscape:persp3d-origin="0.5 : 0.33333333 : 1"
       inkscape:vp_z="1 : 0.5 : 1"
       inkscape:vp_y="0 : 1000 : 0"
       inkscape:vp_x="0 : 0.5 : 1"
       sodipodi:type="inkscape:persp3d" />
    <inkscape:perspective
       id="perspective3812-86"
       inkscape:persp3d-origin="0.5 : 0.33333333 : 1"
       inkscape:vp_z="1 : 0.5 : 1"
       inkscape:vp_y="0 : 1000 : 0"
       inkscape:vp_x="0 : 0.5 : 1"
       sodipodi:type="inkscape:persp3d" />
    <inkscape:perspective
       id="perspective3812-83"
       inkscape:persp3d-origin="0.5 : 0.33333333 : 1"
       inkscape:vp_z="1 : 0.5 : 1"
       inkscape:vp_y="0 : 1000 : 0"
       inkscape:vp_x="0 : 0.5 : 1"
       sodipodi:type="inkscape:persp3d" />
    <inkscape:perspective
       id="perspective3874"
       inkscape:persp3d-origin="0.5 : 0.33333333 : 1"
       inkscape:vp_z="1 : 0.5 : 1"
       inkscape:vp_y="0 : 1000 : 0"
       inkscape:vp_x="0 : 0.5 : 1"
       sodipodi:type="inkscape:persp3d" />
    <inkscape:perspective
       id="perspective3874-4"
       inkscape:persp3d-origin="0.5 : 0.33333333 : 1"
       inkscape:vp_z="1 : 0.5 : 1"
       inkscape:vp_y="0 : 1000 : 0"
       inkscape:vp_x="0 : 0.5 : 1"
       sodipodi:type="inkscape:persp3d" />
    <inkscape:perspective
       id="perspective3874-6"
       inkscape:persp3d-origin="0.5 : 0.33333333 : 1"
       inkscape:vp_z="1 : 0.5 : 1"
       inkscape:vp_y="0 : 1000 : 0"
       inkscape:vp_x="0 : 0.5 : 1"
       sodipodi:type="inkscape:persp3d" />
    <inkscape:perspective
       id="perspective3874-9"
       inkscape:persp3d-origin="0.5 : 0.33333333 : 1"
       inkscape:vp_z="1 : 0.5 : 1"
       inkscape:vp_y="0 : 1000 : 0"
       inkscape:vp_x="0 : 0.5 : 1"
       sodipodi:type="inkscape:persp3d" />
    <inkscape:perspective
       id="perspective3874-8"
       inkscape:persp3d-origin="0.5 : 0.33333333 : 1"
       inkscape:vp_z="1 : 0.5 : 1"
       inkscape:vp_y="0 : 1000 : 0"
       inkscape:vp_x="0 : 0.5 : 1"
       sodipodi:type="inkscape:persp3d" />
    <inkscape:perspective
       id="perspective3874-0"
       inkscape:persp3d-origin="0.5 : 0.33333333 : 1"
       inkscape:vp_z="1 : 0.5 : 1"
       inkscape:vp_y="0 : 1000 : 0"
       inkscape:vp_x="0 : 0.5 : 1"
       sodipodi:type="inkscape:persp3d" />
    <inkscape:perspective
       id="perspective3874-3"
       inkscape:persp3d-origin="0.5 : 0.33333333 : 1"
       inkscape:vp_z="1 : 0.5 : 1"
       inkscape:vp_y="0 : 1000 : 0"
       inkscape:vp_x="0 : 0.5 : 1"
       sodipodi:type="inkscape:persp3d" />
    <inkscape:perspective
       id="perspective3874-32"
       inkscape:persp3d-origin="0.5 : 0.33333333 : 1"
       inkscape:vp_z="1 : 0.5 : 1"
       inkscape:vp_y="0 : 1000 : 0"
       inkscape:vp_x="0 : 0.5 : 1"
       sodipodi:type="inkscape:persp3d" />
    <inkscape:perspective
       id="perspective3874-5"
       inkscape:persp3d-origin="0.5 : 0.33333333 : 1"
       inkscape:vp_z="1 : 0.5 : 1"
       inkscape:vp_y="0 : 1000 : 0"
       inkscape:vp_x="0 : 0.5 : 1"
       sodipodi:type="inkscape:persp3d" />
    <inkscape:perspective
       id="perspective3874-65"
       inkscape:persp3d-origin="0.5 : 0.33333333 : 1"
       inkscape:vp_z="1 : 0.5 : 1"
       inkscape:vp_y="0 : 1000 : 0"
       inkscape:vp_x="0 : 0.5 : 1"
       sodipodi:type="inkscape:persp3d" />
    <inkscape:perspective
       id="perspective3874-96"
       inkscape:persp3d-origin="0.5 : 0.33333333 : 1"
       inkscape:vp_z="1 : 0.5 : 1"
       inkscape:vp_y="0 : 1000 : 0"
       inkscape:vp_x="0 : 0.5 : 1"
       sodipodi:type="inkscape:persp3d" />
  </defs>
  <sodipodi:namedview
     pagecolor="#ffffff"
     bordercolor="#666666"
     borderopacity="1"
     objecttolerance="10"
     gridtolerance="10"
     guidetolerance="10"
     inkscape:pageopacity="0"
     inkscape:pageshadow="2"
     inkscape:window-width="1043"
     inkscape:window-height="842"
     id="namedview2901"
     showgrid="false"
     inkscape:zoom="7.7252014"
     inkscape:cx="34.809701"
     inkscape:cy="38.510323"
     inkscape:window-x="0"
     inkscape:window-y="25"
     inkscape:window-maximized="0"
     inkscape:current-layer="svg2899" />
  <path
     style="fill:#ffffff;fill-opacity:1;stroke:none"
     d="m 42.034926,30.660743 c 20.539962,-39.2758603 49.45263,8.70642 2.012711,5.23306 23.301608,-2.52481 16.913909,-24.3871 -2.012711,-5.23306 z"
     id="path2911"
     sodipodi:nodetypes="ccc" />
  <path
     style="fill:#ffffff;fill-opacity:1;stroke:none"
     d="m 27.713923,46.530463 c -20.5399616,39.27586 -49.452634,-8.70642 -2.012711,-5.23306 -23.3016079,2.52481 -16.9139086,24.3871 2.012711,5.23306 z"
     id="path2911-9"
     sodipodi:nodetypes="ccc" />
  <path
     style="fill:#ffffff;fill-opacity:1;stroke:none"
     d="m 45.425031,41.025473 c 44.29676,-1.51001 16.823862,47.31091 -3.55895,4.33241 13.691813,19.02298 29.557102,2.68116 3.55895,-4.33241 z"
     id="path2911-1"
     sodipodi:nodetypes="ccc" />
  <path
     style="fill:#ffffff;fill-opacity:1;stroke:none"
     d="m 24.555838,36.397733 c -44.296761,1.51001 -16.8238636,-47.31091 3.558951,-4.33241 -13.691813,-19.02298 -29.5571024,-2.68116 -3.558951,4.33241 z"
     id="path2911-9-0"
     sodipodi:nodetypes="ccc" />
  <path
     style="fill:#ffffff;fill-opacity:1;stroke:none"
     d="m 37.937219,48.724263 c 23.214669,37.75662 -32.8047485,38.01596 -5.525471,-0.95136 -9.765184,21.30683 12.28376,27.01704 5.525471,0.95136 z"
     id="path2911-1-7"
     sodipodi:nodetypes="ccc" />
  <path
     style="fill:#ffffff;fill-opacity:1;stroke:none"
     d="M 31.641108,28.296383 C 8.4264394,-9.4602373 64.445856,-9.7195773 37.166579,29.247743 46.931763,7.9409127 24.882818,2.2307027 31.641108,28.296383 z"
     id="path2911-9-0-5"
     sodipodi:nodetypes="ccc" />
  <path
     sodipodi:type="arc"
     style="fill:#ffffff;fill-opacity:1;stroke:none"
     id="path3800"
     sodipodi:cx="38.996292"
     sodipodi:cy="155.93484"
     sodipodi:rx="2.0630298"
     sodipodi:ry="2.0630298"
     d="m 41.059322,155.93484 a 2.0630298,2.0630298 0 1 1 -4.12606,0 2.0630298,2.0630298 0 1 1 4.12606,0 z"
     transform="translate(-4.0561754,-117.17294)" />
  <path
     sodipodi:type="arc"
     style="fill:#ffffff;fill-opacity:1;stroke:none"
     id="path3802"
     sodipodi:cx="38.392479"
     sodipodi:cy="150.50053"
     sodipodi:rx="1.4592161"
     sodipodi:ry="1.4592161"
     d="m 39.851695,150.50053 a 1.4592161,1.4592161 0 1 1 -2.918432,0 1.4592161,1.4592161 0 1 1 2.918432,0 z"
     transform="translate(-3.5529974,-116.97167)" />
  <path
     sodipodi:type="arc"
     style="fill:#ffffff;fill-opacity:1;stroke:none"
     id="path3802-8"
     sodipodi:cx="38.392479"
     sodipodi:cy="150.50053"
     sodipodi:rx="1.4592161"
     sodipodi:ry="1.4592161"
     d="m 39.851695,150.50053 a 1.4592161,1.4592161 0 1 1 -2.918432,0 1.4592161,1.4592161 0 1 1 2.918432,0 z"
     transform="translate(-3.4020441,-106.55589)" />
  <path
     sodipodi:type="arc"
     style="fill:#ffffff;fill-opacity:1;stroke:none"
     id="path3802-9"
     sodipodi:cx="38.392479"
     sodipodi:cy="150.50053"
     sodipodi:rx="1.4592161"
     sodipodi:ry="1.4592161"
     d="m 39.851695,150.50053 a 1.4592161,1.4592161 0 1 1 -2.918432,0 1.4592161,1.4592161 0 1 1 2.918432,0 z"
     transform="translate(-7.8300101,-114.5061)"
     inkscape:transform-center-x="-2.8177966"
     inkscape:transform-center-y="3.9247881" />
  <path
     sodipodi:type="arc"
     style="fill:#ffffff;fill-opacity:1;stroke:none"
     id="path3802-88"
     sodipodi:cx="38.392479"
     sodipodi:cy="150.50053"
     sodipodi:rx="1.4592161"
     sodipodi:ry="1.4592161"
     d="m 39.851695,150.50053 a 1.4592161,1.4592161 0 1 1 -2.918432,0 1.4592161,1.4592161 0 1 1 2.918432,0 z"
     transform="translate(0.82465088,-109.37368)" />
  <path
     sodipodi:type="arc"
     style="fill:#ffffff;fill-opacity:1;stroke:none"
     id="path3802-83"
     sodipodi:cx="38.392479"
     sodipodi:cy="150.50053"
     sodipodi:rx="1.4592161"
     sodipodi:ry="1.4592161"
     d="m 39.851695,150.50053 a 1.4592161,1.4592161 0 1 1 -2.918432,0 1.4592161,1.4592161 0 1 1 2.918432,0 z"
     transform="translate(0.82465088,-114.40546)" />
  <path
     sodipodi:type="arc"
     style="fill:#ffffff;fill-opacity:1;stroke:none"
     id="path3802-3"
     sodipodi:cx="38.392479"
     sodipodi:cy="150.50053"
     sodipodi:rx="1.4592161"
     sodipodi:ry="1.4592161"
     d="m 39.851695,150.50053 a 1.4592161,1.4592161 0 1 1 -2.918432,0 1.4592161,1.4592161 0 1 1 2.918432,0 z"
     transform="translate(-7.7293746,-109.07178)"
     inkscape:transform-center-x="-7.5476695"
     inkscape:transform-center-y="-7.0444915" />
  <path
     sodipodi:type="arc"
     style="fill:#ffffff;fill-opacity:1;stroke:none"
     id="path3864"
     sodipodi:cx="38.090572"
     sodipodi:cy="146.37447"
     sodipodi:rx="0.85540253"
     sodipodi:ry="0.85540253"
     d="m 38.945975,146.37447 a 0.85540253,0.85540253 0 1 1 -1.710805,0 0.85540253,0.85540253 0 1 1 1.710805,0 z"
     transform="translate(-3.2510906,-116.46849)" />
  <path
     transform="translate(1.1265575,-115.41181)"
     sodipodi:type="arc"
     style="fill:#ffffff;fill-opacity:1;stroke:none"
     id="path3864-0"
     sodipodi:cx="38.090572"
     sodipodi:cy="146.37447"
     sodipodi:rx="0.85540253"
     sodipodi:ry="0.85540253"
     d="m 38.945975,146.37447 a 0.85540253,0.85540253 0 1 1 -1.710805,0 0.85540253,0.85540253 0 1 1 1.710805,0 z" />
  <path
     transform="translate(4.2462608,-112.19147)"
     sodipodi:type="arc"
     style="fill:#ffffff;fill-opacity:1;stroke:none"
     id="path3864-7"
     sodipodi:cx="38.090572"
     sodipodi:cy="146.37447"
     sodipodi:rx="0.85540253"
     sodipodi:ry="0.85540253"
     d="m 38.945975,146.37447 a 0.85540253,0.85540253 0 1 1 -1.710805,0 0.85540253,0.85540253 0 1 1 1.710805,0 z" />
  <path
     transform="translate(5.7557948,-107.7635)"
     sodipodi:type="arc"
     style="fill:#ffffff;fill-opacity:1;stroke:none"
     id="path3864-8"
     sodipodi:cx="38.090572"
     sodipodi:cy="146.37447"
     sodipodi:rx="0.85540253"
     sodipodi:ry="0.85540253"
     d="m 38.945975,146.37447 a 0.85540253,0.85540253 0 1 1 -1.710805,0 0.85540253,0.85540253 0 1 1 1.710805,0 z" />
  <path
     transform="translate(4.6488033,-103.33554)"
     sodipodi:type="arc"
     style="fill:#ffffff;fill-opacity:1;stroke:none"
     id="path3864-06"
     sodipodi:cx="38.090572"
     sodipodi:cy="146.37447"
     sodipodi:rx="0.85540253"
     sodipodi:ry="0.85540253"
     d="m 38.945975,146.37447 a 0.85540253,0.85540253 0 1 1 -1.710805,0 0.85540253,0.85540253 0 1 1 1.710805,0 z" />
  <path
     transform="translate(1.3278286,-99.813292)"
     sodipodi:type="arc"
     style="fill:#ffffff;fill-opacity:1;stroke:none"
     id="path3864-79"
     sodipodi:cx="38.090572"
     sodipodi:cy="146.37447"
     sodipodi:rx="0.85540253"
     sodipodi:ry="0.85540253"
     d="m 38.945975,146.37447 a 0.85540253,0.85540253 0 1 1 -1.710805,0 0.85540253,0.85540253 0 1 1 1.710805,0 z" />
  <path
     transform="translate(-3.1001375,-98.605665)"
     sodipodi:type="arc"
     style="fill:#ffffff;fill-opacity:1;stroke:none"
     id="path3864-3"
     sodipodi:cx="38.090572"
     sodipodi:cy="146.37447"
     sodipodi:rx="0.85540253"
     sodipodi:ry="0.85540253"
     d="m 38.945975,146.37447 a 0.85540253,0.85540253 0 1 1 -1.710805,0 0.85540253,0.85540253 0 1 1 1.710805,0 z" />
  <path
     transform="translate(-7.7293748,-100.01456)"
     sodipodi:type="arc"
     style="fill:#ffffff;fill-opacity:1;stroke:none"
     id="path3864-37"
     sodipodi:cx="38.090572"
     sodipodi:cy="146.37447"
     sodipodi:rx="0.85540253"
     sodipodi:ry="0.85540253"
     d="m 38.945975,146.37447 a 0.85540253,0.85540253 0 1 1 -1.710805,0 0.85540253,0.85540253 0 1 1 1.710805,0 z" />
  <path
     transform="translate(-11.050349,-103.03363)"
     sodipodi:type="arc"
     style="fill:#ffffff;fill-opacity:1;stroke:none"
     id="path3864-6"
     sodipodi:cx="38.090572"
     sodipodi:cy="146.37447"
     sodipodi:rx="0.85540253"
     sodipodi:ry="0.85540253"
     d="m 38.945975,146.37447 a 0.85540253,0.85540253 0 1 1 -1.710805,0 0.85540253,0.85540253 0 1 1 1.710805,0 z" />
  <path
     transform="translate(-12.056705,-107.66287)"
     sodipodi:type="arc"
     style="fill:#ffffff;fill-opacity:1;stroke:none"
     id="path3864-2"
     sodipodi:cx="38.090572"
     sodipodi:cy="146.37447"
     sodipodi:rx="0.85540253"
     sodipodi:ry="0.85540253"
     d="m 38.945975,146.37447 a 0.85540253,0.85540253 0 1 1 -1.710805,0 0.85540253,0.85540253 0 1 1 1.710805,0 z" />
  <path
     transform="translate(-11.050349,-112.09084)"
     sodipodi:type="arc"
     style="fill:#ffffff;fill-opacity:1;stroke:none"
     id="path3864-87"
     sodipodi:cx="38.090572"
     sodipodi:cy="146.37447"
     sodipodi:rx="0.85540253"
     sodipodi:ry="0.85540253"
     d="m 38.945975,146.37447 a 0.85540253,0.85540253 0 1 1 -1.710805,0 0.85540253,0.85540253 0 1 1 1.710805,0 z" />
  <path
     transform="translate(-7.9306459,-115.51245)"
     sodipodi:type="arc"
     style="fill:#ffffff;fill-opacity:1;stroke:none"
     id="path3864-04"
     sodipodi:cx="38.090572"
     sodipodi:cy="146.37447"
     sodipodi:rx="0.85540253"
     sodipodi:ry="0.85540253"
     d="m 38.945975,146.37447 a 0.85540253,0.85540253 0 1 1 -1.710805,0 0.85540253,0.85540253 0 1 1 1.710805,0 z" />
</svg>
